<svg width="100" height="100" viewBox="0 0 100 100" fill="none" xmlns="http://www.w3.org/2000/svg">
<g clip-path="url(#clip0_1_212)">
<path fill-rule="evenodd" clip-rule="evenodd" d="M46.82 3.825C46.635 30.92 46.43 58.505 46.22 86.59C35.4635 75.9882 24.7068 65.3865 13.95 54.785C12.025 53.225 9.94 53.68 8.615 54.96C7.375 56.16 6.85 58.46 8.65 60.41C20.49 72.04 33.525 84.87 47.75 98.895C48.4939 99.6111 49.4874 100.009 50.52 100.005C51.0208 100.011 51.5175 99.9153 51.9806 99.7245C52.4436 99.5338 52.8635 99.2517 53.215 98.895C66.845 85.145 79.65 72.22 91.63 60.12C92.2499 59.3867 92.5667 58.4444 92.5156 57.4855C92.4645 56.5266 92.0494 55.6233 91.355 54.96C89.5 53.09 86.93 53.815 85.89 54.96C75.2604 65.7019 64.617 76.4303 53.96 87.145C54.165 59.1 54.36 31.33 54.545 3.825C54.545 2.525 53.485 0 50.71 0C47.935 0 46.82 2.345 46.82 3.825Z" fill="#7F7CF4"/>
</g>
<defs>
<clipPath id="clip0_1_212">
<rect width="100" height="100" fill="white"/>
</clipPath>
</defs>
</svg>
