<svg width="170" height="80" viewBox="0 0 170 80" fill="none" xmlns="http://www.w3.org/2000/svg">
<path d="M2.02273 31V7.72727H11.3409C13.053 7.72727 14.4811 7.98106 15.625 8.48864C16.7689 8.99621 17.6288 9.70076 18.2045 10.6023C18.7803 11.4962 19.0682 12.5265 19.0682 13.6932C19.0682 14.6023 18.8864 15.4015 18.5227 16.0909C18.1591 16.7727 17.6591 17.3333 17.0227 17.7727C16.3939 18.2045 15.6742 18.5114 14.8636 18.6932V18.9205C15.75 18.9583 16.5795 19.2083 17.3523 19.6705C18.1326 20.1326 18.7652 20.7803 19.25 21.6136C19.7348 22.4394 19.9773 23.4242 19.9773 24.5682C19.9773 25.803 19.6705 26.9053 19.0568 27.875C18.4508 28.8371 17.553 29.5985 16.3636 30.1591C15.1742 30.7197 13.7083 31 11.9659 31H2.02273ZM6.94318 26.9773H10.9545C12.3258 26.9773 13.3258 26.7159 13.9545 26.1932C14.5833 25.6629 14.8977 24.9583 14.8977 24.0795C14.8977 23.4356 14.7424 22.8674 14.4318 22.375C14.1212 21.8826 13.678 21.4962 13.1023 21.2159C12.5341 20.9356 11.8561 20.7955 11.0682 20.7955H6.94318V26.9773ZM6.94318 17.4659H10.5909C11.2652 17.4659 11.8636 17.3485 12.3864 17.1136C12.9167 16.8712 13.3333 16.5303 13.6364 16.0909C13.947 15.6515 14.1023 15.125 14.1023 14.5114C14.1023 13.6705 13.803 12.9924 13.2045 12.4773C12.6136 11.9621 11.7727 11.7045 10.6818 11.7045H6.94318V17.4659ZM42.4489 13.5455V17.3523H35.1989V31H30.4943V13.5455H42.4489ZM52.6619 31.3409C50.8968 31.3409 49.3703 30.9659 48.0824 30.2159C46.8021 29.4583 45.8134 28.4053 45.1165 27.0568C44.4195 25.7008 44.071 24.1288 44.071 22.3409C44.071 20.5379 44.4195 18.9621 45.1165 17.6136C45.8134 16.2576 46.8021 15.2045 48.0824 14.4545C49.3703 13.697 50.8968 13.3182 52.6619 13.3182C54.4271 13.3182 55.9498 13.697 57.2301 14.4545C58.518 15.2045 59.5104 16.2576 60.2074 17.6136C60.9044 18.9621 61.2528 20.5379 61.2528 22.3409C61.2528 24.1288 60.9044 25.7008 60.2074 27.0568C59.5104 28.4053 58.518 29.4583 57.2301 30.2159C55.9498 30.9659 54.4271 31.3409 52.6619 31.3409ZM52.6847 27.5909C53.4877 27.5909 54.1581 27.3636 54.696 26.9091C55.2339 26.447 55.6392 25.8182 55.9119 25.0227C56.1922 24.2273 56.3324 23.322 56.3324 22.3068C56.3324 21.2917 56.1922 20.3864 55.9119 19.5909C55.6392 18.7955 55.2339 18.1667 54.696 17.7045C54.1581 17.2424 53.4877 17.0114 52.6847 17.0114C51.8741 17.0114 51.1922 17.2424 50.6392 17.7045C50.0938 18.1667 49.6809 18.7955 49.4006 19.5909C49.1278 20.3864 48.9915 21.2917 48.9915 22.3068C48.9915 23.322 49.1278 24.2273 49.4006 25.0227C49.6809 25.8182 50.0938 26.447 50.6392 26.9091C51.1922 27.3636 51.8741 27.5909 52.6847 27.5909ZM72.2869 31.3409C70.4991 31.3409 68.9612 30.9621 67.6733 30.2045C66.393 29.4394 65.4081 28.3788 64.7188 27.0227C64.0369 25.6667 63.696 24.1061 63.696 22.3409C63.696 20.553 64.0407 18.9848 64.7301 17.6364C65.4271 16.2803 66.4157 15.2235 67.696 14.4659C68.9763 13.7008 70.4991 13.3182 72.2642 13.3182C73.7869 13.3182 75.1203 13.5947 76.2642 14.1477C77.4081 14.7008 78.3134 15.4773 78.9801 16.4773C79.6468 17.4773 80.0142 18.6515 80.0824 20H75.5142C75.3854 19.1288 75.0445 18.428 74.4915 17.8977C73.946 17.3598 73.2301 17.0909 72.3438 17.0909C71.5938 17.0909 70.9384 17.2955 70.3778 17.7045C69.8248 18.1061 69.393 18.6932 69.0824 19.4659C68.7718 20.2386 68.6165 21.1742 68.6165 22.2727C68.6165 23.3864 68.768 24.3333 69.071 25.1136C69.3816 25.8939 69.8172 26.4886 70.3778 26.8977C70.9384 27.3068 71.5938 27.5114 72.3438 27.5114C72.8968 27.5114 73.393 27.3977 73.8324 27.1705C74.2794 26.9432 74.6468 26.6136 74.9347 26.1818C75.2301 25.7424 75.4233 25.2159 75.5142 24.6023H80.0824C80.0066 25.9356 79.643 27.1098 78.9915 28.125C78.3475 29.1326 77.4574 29.9205 76.321 30.4886C75.1847 31.0568 73.84 31.3409 72.2869 31.3409ZM81.9915 17.3523V13.5455H97.8097V17.3523H92.1847V31H87.571V17.3523H81.9915ZM110.972 31V17.3409H107.699C106.813 17.3409 106.138 17.5455 105.676 17.9545C105.214 18.3636 104.987 18.8485 104.994 19.4091C104.987 19.9773 105.206 20.4583 105.653 20.8523C106.108 21.2386 106.775 21.4318 107.653 21.4318H112.585V24.7045H107.653C106.161 24.7045 104.869 24.4773 103.778 24.0227C102.688 23.5682 101.847 22.9356 101.256 22.125C100.665 21.3068 100.373 20.3561 100.381 19.2727C100.373 18.1364 100.665 17.1402 101.256 16.2841C101.847 15.4205 102.691 14.75 103.79 14.2727C104.896 13.7879 106.199 13.5455 107.699 13.5455H115.483V31H110.972ZM99.8807 31L104.733 21.9091H109.358L104.517 31H99.8807ZM123.29 13.5455L126.494 19.6477L129.778 13.5455H134.744L129.688 22.2727L134.881 31H129.938L126.494 24.9659L123.108 31H118.108L123.29 22.2727L118.29 13.5455H123.29ZM148.014 37.5455C147.401 37.5455 146.825 37.4962 146.287 37.3977C145.757 37.3068 145.317 37.1894 144.969 37.0455L146.06 33.4318C146.628 33.6061 147.139 33.7008 147.594 33.7159C148.056 33.7311 148.454 33.625 148.787 33.3977C149.128 33.1705 149.404 32.7841 149.616 32.2386L149.901 31.5L143.639 13.5455H148.73L152.344 26.3636H152.526L156.173 13.5455H161.298L154.514 32.8864C154.188 33.8258 153.745 34.6439 153.185 35.3409C152.632 36.0455 151.931 36.5871 151.082 36.9659C150.234 37.3523 149.211 37.5455 148.014 37.5455ZM9.81818 70.3409C8.0303 70.3409 6.49242 69.9621 5.20455 69.2045C3.92424 68.4394 2.93939 67.3788 2.25 66.0227C1.56818 64.6667 1.22727 63.1061 1.22727 61.3409C1.22727 59.553 1.57197 57.9848 2.26136 56.6364C2.95833 55.2803 3.94697 54.2235 5.22727 53.4659C6.50758 52.7008 8.0303 52.3182 9.79545 52.3182C11.3182 52.3182 12.6515 52.5947 13.7955 53.1477C14.9394 53.7008 15.8447 54.4773 16.5114 55.4773C17.178 56.4773 17.5455 57.6515 17.6136 59H13.0455C12.9167 58.1288 12.5758 57.428 12.0227 56.8977C11.4773 56.3598 10.7614 56.0909 9.875 56.0909C9.125 56.0909 8.4697 56.2955 7.90909 56.7045C7.35606 57.1061 6.92424 57.6932 6.61364 58.4659C6.30303 59.2386 6.14773 60.1742 6.14773 61.2727C6.14773 62.3864 6.29924 63.3333 6.60227 64.1136C6.91288 64.8939 7.34848 65.4886 7.90909 65.8977C8.4697 66.3068 9.125 66.5114 9.875 66.5114C10.428 66.5114 10.9242 66.3977 11.3636 66.1705C11.8106 65.9432 12.178 65.6136 12.4659 65.1818C12.7614 64.7424 12.9545 64.2159 13.0455 63.6023H17.6136C17.5379 64.9356 17.1742 66.1098 16.5227 67.125C15.8788 68.1326 14.9886 68.9205 13.8523 69.4886C12.7159 70.0568 11.3712 70.3409 9.81818 70.3409ZM20.7131 70V52.5455H25.554V59.3182H26.9176L31.6676 52.5455H37.3494L31.179 61.2045L37.4176 70H31.6676L27.3608 63.8068H25.554V70H20.7131ZM44.4403 70.3295C43.3267 70.3295 42.3343 70.1364 41.4631 69.75C40.5919 69.3561 39.9025 68.7765 39.3949 68.0114C38.8949 67.2386 38.6449 66.2765 38.6449 65.125C38.6449 64.1553 38.8229 63.3409 39.179 62.6818C39.535 62.0227 40.0199 61.4924 40.6335 61.0909C41.2472 60.6894 41.9441 60.3864 42.7244 60.1818C43.5123 59.9773 44.3381 59.8333 45.2017 59.75C46.2169 59.6439 47.035 59.5455 47.6562 59.4545C48.2775 59.3561 48.7282 59.2121 49.0085 59.0227C49.2888 58.8333 49.429 58.553 49.429 58.1818V58.1136C49.429 57.3939 49.2017 56.8371 48.7472 56.4432C48.3002 56.0492 47.6638 55.8523 46.8381 55.8523C45.9669 55.8523 45.2737 56.0455 44.7585 56.4318C44.2434 56.8106 43.9025 57.2879 43.7358 57.8636L39.2585 57.5C39.4858 56.4394 39.9328 55.5227 40.5994 54.75C41.2661 53.9697 42.1259 53.3712 43.179 52.9545C44.2396 52.5303 45.4669 52.3182 46.8608 52.3182C47.8305 52.3182 48.7585 52.4318 49.6449 52.6591C50.5388 52.8864 51.3305 53.2386 52.0199 53.7159C52.7169 54.1932 53.2661 54.8068 53.6676 55.5568C54.0691 56.2992 54.2699 57.1894 54.2699 58.2273V70H49.679V67.5795H49.5426C49.2623 68.125 48.8873 68.6061 48.4176 69.0227C47.9479 69.4318 47.3835 69.7538 46.7244 69.9886C46.0653 70.2159 45.304 70.3295 44.4403 70.3295ZM45.8267 66.9886C46.5388 66.9886 47.1676 66.8485 47.7131 66.5682C48.2585 66.2803 48.6866 65.8939 48.9972 65.4091C49.3078 64.9242 49.4631 64.375 49.4631 63.7614V61.9091C49.3116 62.0076 49.1032 62.0985 48.8381 62.1818C48.5805 62.2576 48.2888 62.3295 47.9631 62.3977C47.6373 62.4583 47.3116 62.5152 46.9858 62.5682C46.66 62.6136 46.3646 62.6553 46.0994 62.6932C45.5313 62.7765 45.035 62.9091 44.6108 63.0909C44.1866 63.2727 43.857 63.5189 43.6222 63.8295C43.3873 64.1326 43.2699 64.5114 43.2699 64.9659C43.2699 65.625 43.5085 66.1288 43.9858 66.4773C44.4706 66.8182 45.0843 66.9886 45.8267 66.9886ZM57.1278 65.0568H61.821C61.8438 65.6326 62.1013 66.0871 62.5938 66.4205C63.0862 66.7538 63.7225 66.9205 64.5028 66.9205C65.2907 66.9205 65.9536 66.7386 66.4915 66.375C67.0294 66.0038 67.2983 65.4735 67.2983 64.7841C67.2983 64.3598 67.1922 63.9924 66.9801 63.6818C66.768 63.3636 66.4725 63.1136 66.0938 62.9318C65.715 62.75 65.2756 62.6591 64.7756 62.6591H62.2642V59.4886H64.7756C65.5256 59.4886 66.1013 59.3144 66.5028 58.9659C66.9119 58.6174 67.1165 58.1818 67.1165 57.6591C67.1165 57.0682 66.9044 56.5947 66.4801 56.2386C66.0634 55.875 65.4991 55.6932 64.7869 55.6932C64.0672 55.6932 63.4688 55.8561 62.9915 56.1818C62.5218 56.5 62.2794 56.9167 62.2642 57.4318H57.5938C57.6089 56.3864 57.9233 55.4811 58.5369 54.7159C59.1581 53.9508 59.9915 53.3598 61.0369 52.9432C62.09 52.5265 63.268 52.3182 64.571 52.3182C65.9953 52.3182 67.2225 52.5189 68.2528 52.9205C69.2907 53.3144 70.0862 53.8788 70.6392 54.6136C71.1998 55.3485 71.4801 56.2235 71.4801 57.2386C71.4801 58.1629 71.1771 58.9356 70.571 59.5568C69.965 60.178 69.1165 60.6212 68.0256 60.8864V61.0682C68.7453 61.1136 69.3968 61.3068 69.9801 61.6477C70.5634 61.9886 71.0294 62.4583 71.3778 63.0568C71.7263 63.6477 71.9006 64.3485 71.9006 65.1591C71.9006 66.2424 71.5824 67.1705 70.946 67.9432C70.3172 68.7159 69.446 69.3106 68.3324 69.7273C67.2263 70.1364 65.9574 70.3409 64.5256 70.3409C63.1316 70.3409 61.8816 70.1402 60.7756 69.7386C59.6771 69.3295 58.8021 68.7311 58.1506 67.9432C57.5066 67.1553 57.1657 66.1932 57.1278 65.0568ZM74.8693 70V52.5455H79.7102V59.3182H81.0739L85.8239 52.5455H91.5057L85.3352 61.2045L91.5739 70H85.8239L81.517 63.8068H79.7102V70H74.8693ZM98.2443 63.6136L104.528 52.5455H109.301V70H104.688V58.8977L98.4261 70H93.6193V52.5455H98.2443V63.6136Z" fill="#1E1E1E"/>
<path d="M160 72H125M125 53.4737L132.11 48M160 53.4737L145.779 42.5263C144.849 41.8097 143.692 41.4192 142.5 41.4192C141.308 41.4192 140.151 41.8097 139.221 42.5263L137.852 43.5789M148.625 44.2105V40.8421C148.625 40.6188 148.717 40.4046 148.881 40.2466C149.045 40.0887 149.268 40 149.5 40H153.875C154.107 40 154.33 40.0887 154.494 40.2466C154.658 40.4046 154.75 40.6188 154.75 40.8421V49.2632M128.5 72V50.9474M156.5 50.9474V57.6842M156.5 72V64.4211" stroke="#7F7CF4" stroke-width="3.125" stroke-linecap="round"/>
<path d="M147.75 72V63.5789C147.75 61.1975 147.75 60.0067 146.98 59.2674C146.214 58.5263 144.976 58.5263 142.5 58.5263C140.026 58.5263 138.788 58.5263 138.02 59.2674M137.25 72V63.5789" stroke="#7F7CF4" stroke-width="3.125" stroke-linecap="round" stroke-linejoin="round"/>
<path d="M146 50.9474C146 51.8407 145.631 52.6975 144.975 53.3292C144.318 53.9609 143.428 54.3158 142.5 54.3158C141.572 54.3158 140.682 53.9609 140.025 53.3292C139.369 52.6975 139 51.8407 139 50.9474C139 50.054 139.369 49.1972 140.025 48.5655C140.682 47.9338 141.572 47.5789 142.5 47.5789C143.428 47.5789 144.318 47.9338 144.975 48.5655C145.631 49.1972 146 50.054 146 50.9474Z" stroke="#7F7CF4" stroke-width="3.125"/>
</svg>
